{
  "accessors": [
    {
      "bufferView": 2,
      "componentType": 5126,
      "count": 65532,
      "max": [
        7.7423710823059082,
        5.2930569648742676,
        3.2509360313415527
      ],
      "min": [
        -5.0358209609985352,
        -1.9732966423034668,
        -6.9198212623596191
      ],
      "type": "VEC3"
    },
    {
      "bufferView": 2,
      "byteOffset": 786384,
      "componentType": 5126,
      "count": 65532,
      "max": [
        0.9999958872795105,
        0.99996310472488403,
        0.99998754262924194
      ],
      "min": [
        -0.99998295307159424,
        -0.99996018409729004,
        -0.99998754262924194
      ],
      "type": "VEC3"
    },
    {
      "bufferView": 1,
      "componentType": 5126,
      "count": 65532,
      "max": [
        0.99968653917312622,
        0.99993938207626343
      ],
      "min": [
        3.1931365811033174e-05,
        0.00025598067441023886
      ],
      "type": "VEC2"
    },
    {
      "bufferView": 0,
      "componentType": 5125,
      "count": 162354,
      "max": [
        65531
      ],
      "min": [
        0
      ],
      "type": "SCALAR"
    },
    {
      "bufferView": 2,
      "byteOffset": 1572768,
      "componentType": 5126,
      "count": 65533,
      "max": [
        8.1103935241699219,
        2.4438385963439941,
        1.9575114250183105
      ],
      "min": [
        -3.4481658935546875,
        -1.1441054344177246,
        -2.2038216590881348
      ],
      "type": "VEC3"
    },
    {
      "bufferView": 2,
      "byteOffset": 2359164,
      "componentType": 5126,
      "count": 65533,
      "max": [
        0.99997133016586304,
        0.99997872114181519,
        0.99998772144317627
      ],
      "min": [
        -0.99998003244400024,
        -0.9999268651008606,
        -0.99998688697814941
      ],
      "type": "VEC3"
    },
    {
      "bufferView": 1,
      "byteOffset": 524256,
      "componentType": 5126,
      "count": 65533,
      "max": [
        0.99965286254882812,
        0.99994313716888428
      ],
      "min": [
        7.1420799940824509e-07,
        9.0739413280971348e-05
      ],
      "type": "VEC2"
    },
    {
      "bufferView": 0,
      "byteOffset": 649416,
      "componentType": 5125,
      "count": 164769,
      "max": [
        65532
      ],
      "min": [
        0
      ],
      "type": "SCALAR"
    },
    {
      "bufferView": 2,
      "byteOffset": 3145560,
      "componentType": 5126,
      "count": 65532,
      "max": [
        9.4208917617797852,
        6.0638566017150879,
        5.1187644004821777
      ],
      "min": [
        -3.2761445045471191,
        -4.0378317832946777,
        -8.9997072219848633
      ],
      "type": "VEC3"
    },
    {
      "bufferView": 2,
      "byteOffset": 3931944,
      "componentType": 5126,
      "count": 65532,
      "max": [
        0.99987465143203735,
        0.99992895126342773,
        0.99967706203460693
      ],
      "min": [
        -0.99999725818634033,
        -0.99998581409454346,
        -0.99992799758911133
      ],
      "type": "VEC3"
    },
    {
      "bufferView": 1,
      "byteOffset": 1048520,
      "componentType": 5126,
      "count": 65532,
      "max": [
        0.99964797496795654,
        0.99994730949401855
      ],
      "min": [
        4.9500944442115724e-05,
        0.00025561120128259063
      ],
      "type": "VEC2"
    },
    {
      "bufferView": 0,
      "byteOffset": 1308492,
      "componentType": 5125,
      "count": 242790,
      "max": [
        65531
      ],
      "min": [
        0
      ],
      "type": "SCALAR"
    },
    {
      "bufferView": 2,
      "byteOffset": 4718328,
      "componentType": 5126,
      "count": 65532,
      "max": [
        7.5806694030761719,
        4.9682507514953613,
        -1.2352328300476074
      ],
      "min": [
        -5.1708874702453613,
        -0.084314145147800446,
        -7.7358484268188477
      ],
      "type": "VEC3"
    },
    {
      "bufferView": 2,
      "byteOffset": 5504712,
      "componentType": 5126,
      "count": 65532,
      "max": [
        0.99927598237991333,
        0.99998247623443604,
        0.99981939792633057
      ],
      "min": [
        -0.99997949600219727,
        -0.99997824430465698,
        -0.99989181756973267
      ],
      "type": "VEC3"
    },
    {
      "bufferView": 1,
      "byteOffset": 1572776,
      "componentType": 5126,
      "count": 65532,
      "max": [
        0.99844622611999512,
        0.99945461750030518
      ],
      "min": [
        0.0033033995423465967,
        0.0027863010764122009
      ],
      "type": "VEC2"
    },
    {
      "bufferView": 0,
      "byteOffset": 2279652,
      "componentType": 5125,
      "count": 319716,
      "max": [
        65531
      ],
      "min": [
        0
      ],
      "type": "SCALAR"
    },
    {
      "bufferView": 2,
      "byteOffset": 6291096,
      "componentType": 5126,
      "count": 65532,
      "max": [
        7.937685489654541,
        4.2467575073242188,
        -0.86313104629516602
      ],
      "min": [
        -5.1499109268188477,
        -0.56912380456924438,
        -6.3680086135864258
      ],
      "type": "VEC3"
    },
    {
      "bufferView": 2,
      "byteOffset": 7077480,
      "componentType": 5126,
      "count": 65532,
      "max": [
        0.99998217821121216,
        0.99997437000274658,
        0.99999821186065674
      ],
      "min": [
        -0.99998706579208374,
        -0.9999992847442627,
        -0.99959284067153931
      ],
      "type": "VEC3"
    },
    {
      "bufferView": 1,
      "byteOffset": 2097032,
      "componentType": 5126,
      "count": 65532,
      "max": [
        0.99839925765991211,
        0.99870771169662476
      ],
      "min": [
        0.0018422167049720883,
        0.0013840983156114817
      ],
      "type": "VEC2"
    },
    {
      "bufferView": 0,
      "byteOffset": 3558516,
      "componentType": 5125,
      "count": 301506,
      "max": [
        65531
      ],
      "min": [
        0
      ],
      "type": "SCALAR"
    },
    {
      "bufferView": 2,
      "byteOffset": 7863864,
      "componentType": 5126,
      "count": 65532,
      "max": [
        8.4645671844482422,
        3.6448729038238525,
        0.86977910995483398
      ],
      "min": [
        -4.8164205551147461,
        -2.286656379699707,
        -5.3173346519470215
      ],
      "type": "VEC3"
    },
    {
      "bufferView": 2,
      "byteOffset": 8650248,
      "componentType": 5126,
      "count": 65532,
      "max": [
        0.9999731183052063,
        0.99987727403640747,
        0.99986851215362549
      ],
      "min": [
        -0.99999773502349854,
        -0.99998003244400024,
        -0.99987858533859253
      ],
      "type": "VEC3"
    },
    {
      "bufferView": 1,
      "byteOffset": 2621288,
      "componentType": 5126,
      "count": 65532,
      "max": [
        0.99894618988037109,
        0.99898308515548706
      ],
      "min": [
        0.0020716134458780289,
        0.00084137252997606993
      ],
      "type": "VEC2"
    },
    {
      "bufferView": 0,
      "byteOffset": 4764540,
      "componentType": 5125,
      "count": 255846,
      "max": [
        65531
      ],
      "min": [
        0
      ],
      "type": "SCALAR"
    },
    {
      "bufferView": 2,
      "byteOffset": 9436632,
      "componentType": 5126,
      "count": 65532,
      "max": [
        8.4555416107177734,
        2.7619023323059082,
        1.2015376091003418
      ],
      "min": [
        -3.5901694297790527,
        -2.743133544921875,
        -3.9045557975769043
      ],
      "type": "VEC3"
    },
    {
      "bufferView": 2,
      "byteOffset": 10223016,
      "componentType": 5126,
      "count": 65532,
      "max": [
        0.99995881319046021,
        0.99998253583908081,
        0.99999535083770752
      ],
      "min": [
        -0.99995213747024536,
        -0.99996352195739746,
        -0.99995142221450806
      ],
      "type": "VEC3"
    },
    {
      "bufferView": 1,
      "byteOffset": 3145544,
      "componentType": 5126,
      "count": 65532,
      "max": [
        0.99737423658370972,
        0.99943065643310547
      ],
      "min": [
        0.00056151452008634806,
        0.0010585502022877336
      ],
      "type": "VEC2"
    },
    {
      "bufferView": 0,
      "byteOffset": 5787924,
      "componentType": 5125,
      "count": 235572,
      "max": [
        65531
      ],
      "min": [
        0
      ],
      "type": "SCALAR"
    },
    {
      "bufferView": 2,
      "byteOffset": 11009400,
      "componentType": 5126,
      "count": 65532,
      "max": [
        8.5011682510375977,
        2.1423320770263672,
        3.4889178276062012
      ],
      "min": [
        -3.2371354103088379,
        -2.5269777774810791,
        -3.0926918983459473
      ],
      "type": "VEC3"
    },
    {
      "bufferView": 2,
      "byteOffset": 11795784,
      "componentType": 5126,
      "count": 65532,
      "max": [
        0.99992853403091431,
        0.99995529651641846,
        0.99990856647491455
      ],
      "min": [
        -0.99999779462814331,
        -0.99997150897979736,
        -0.99997365474700928
      ],
      "type": "VEC3"
    },
    {
      "bufferView": 1,
      "byteOffset": 3669800,
      "componentType": 5126,
      "count": 65532,
      "max": [
        0.99895572662353516,
        0.99969160556793213
      ],
      "min": [
        0.00028551282593980432,
        0.00037720068939961493
      ],
      "type": "VEC2"
    },
    {
      "bufferView": 0,
      "byteOffset": 6730212,
      "componentType": 5125,
      "count": 239745,
      "max": [
        65531
      ],
      "min": [
        0
      ],
      "type": "SCALAR"
    },
    {
      "bufferView": 2,
      "byteOffset": 12582168,
      "componentType": 5126,
      "count": 65532,
      "max": [
        8.7759580612182617,
        1.443204402923584,
        3.667539119720459
      ],
      "min": [
        -3.1025595664978027,
        -3.6901209354400635,
        -1.9737076759338379
      ],
      "type": "VEC3"
    },
    {
      "bufferView": 2,
      "byteOffset": 13368552,
      "componentType": 5126,
      "count": 65532,
      "max": [
        0.99981826543807983,
        0.9999961256980896,
        0.99998766183853149
      ],
      "min": [
        -0.99999374151229858,
        -0.99997174739837646,
        -0.99997931718826294
      ],
      "type": "VEC3"
    },
    {
      "bufferView": 1,
      "byteOffset": 4194056,
      "componentType": 5126,
      "count": 65532,
      "max": [
        0.99745690822601318,
        0.99919813871383667
      ],
      "min": [
        0.0033900714479386806,
        0.0046556685119867325
      ],
      "type": "VEC2"
    },
    {
      "bufferView": 0,
      "byteOffset": 7689192,
      "componentType": 5125,
      "count": 256197,
      "max": [
        65531
      ],
      "min": [
        0
      ],
      "type": "SCALAR"
    },
    {
      "bufferView": 2,
      "byteOffset": 14154936,
      "componentType": 5126,
      "count": 65532,
      "max": [
        9.1344356536865234,
        0.45730459690093994,
        4.1175627708435059
      ],
      "min": [
        -3.5056490898132324,
        -4.2903895378112793,
        -0.88459920883178711
      ],
      "type": "VEC3"
    },
    {
      "bufferView": 2,
      "byteOffset": 14941320,
      "componentType": 5126,
      "count": 65532,
      "max": [
        0.99959355592727661,
        0.99996882677078247,
        0.99999827146530151
      ],
      "min": [
        -0.99996399879455566,
        -0.99999958276748657,
        -0.9999384880065918
      ],
      "type": "VEC3"
    },
    {
      "bufferView": 1,
      "byteOffset": 4718312,
      "componentType": 5126,
      "count": 65532,
      "max": [
        0.99862879514694214,
        0.99839937686920166
      ],
      "min": [
        0.00059673644136637449,
        0.0045634382404386997
      ],
      "type": "VEC2"
    },
    {
      "bufferView": 0,
      "byteOffset": 8713980,
      "componentType": 5125,
      "count": 307062,
      "max": [
        65531
      ],
      "min": [
        0
      ],
      "type": "SCALAR"
    },
    {
      "bufferView": 2,
      "byteOffset": 15727704,
      "componentType": 5126,
      "count": 65532,
      "max": [
        9.304682731628418,
        -0.39614054560661316,
        5.448920726776123
      ],
      "min": [
        -3.5137457847595215,
        -5.1481099128723145,
        -0.14802217483520508
      ],
      "type": "VEC3"
    },
    {
      "bufferView": 2,
      "byteOffset": 16514088,
      "componentType": 5126,
      "count": 65532,
      "max": [
        0.9999774694442749,
        0.9999387264251709,
        0.99987852573394775
      ],
      "min": [
        -0.99995219707489014,
        -0.99999958276748657,
        -0.99996984004974365
      ],
      "type": "VEC3"
    },
    {
      "bufferView": 1,
      "byteOffset": 5242568,
      "componentType": 5126,
      "count": 65532,
      "max": [
        0.99713981151580811,
        0.99897080659866333
      ],
      "min": [
        0.0016154978657141328,
        0.0010662078857421875
      ],
      "type": "VEC2"
    },
    {
      "bufferView": 0,
      "byteOffset": 9942228,
      "componentType": 5125,
      "count": 294195,
      "max": [
        65531
      ],
      "min": [
        0
      ],
      "type": "SCALAR"
    },
    {
      "bufferView": 2,
      "byteOffset": 17300472,
      "componentType": 5126,
      "count": 18633,
      "max": [
        9.4598102569580078,
        -1.0405372381210327,
        5.448920726776123
      ],
      "min": [
        -3.0525336265563965,
        -5.2429413795471191,
        1.3659548759460449
      ],
      "type": "VEC3"
    },
    {
      "bufferView": 2,
      "byteOffset": 17524068,
      "componentType": 5126,
      "count": 18633,
      "max": [
        0.99891424179077148,
        0.99968874454498291,
        0.99990403652191162
      ],
      "min": [
        -0.99998617172241211,
        -0.9998745322227478,
        -0.99995321035385132
      ],
      "type": "VEC3"
    },
    {
      "bufferView": 1,
      "byteOffset": 5766824,
      "componentType": 5126,
      "count": 18633,
      "max": [
        0.99772679805755615,
        0.99893283843994141
      ],
      "min": [
        0.0016237420495599508,
        0.015906484797596931
      ],
      "type": "VEC2"
    },
    {
      "bufferView": 0,
      "byteOffset": 11119008,
      "componentType": 5125,
      "count": 77856,
      "max": [
        18632
      ],
      "min": [
        0
      ],
      "type": "SCALAR"
    }
  ],
  "asset": {
    "extras": {
      "author": "mspen1bi (https://sketchfab.com/mspen1bi)",
      "license": "CC-BY-4.0 (http://creativecommons.org/licenses/by/4.0/)",
      "source": "https://sketchfab.com/3d-models/fredericksburg-cemetery-gate-william-street-1c22908983c64b3b8b1abef4de5318ce",
      "title": "Fredericksburg Cemetery Gate, William Street"
    },
    "generator": "Sketchfab-8.16.0",
    "version": "2.0"
  },
  "bufferViews": [
    {
      "buffer": 0,
      "byteLength": 11430432,
      "byteOffset": 0,
      "name": "floatBufferViews",
      "target": 34963
    },
    {
      "buffer": 0,
      "byteLength": 5915888,
      "byteOffset": 11430432,
      "byteStride": 8,
      "name": "floatBufferViews",
      "target": 34962
    },
    {
      "buffer": 0,
      "byteLength": 17747664,
      "byteOffset": 17346320,
      "byteStride": 12,
      "name": "floatBufferViews",
      "target": 34962
    }
  ],
  "buffers": [
    {
      "byteLength": 35093984,
      "uri": "scene.bin"
    }
  ],
  "images": [
    {
      "uri": "textures/material0_baseColor.jpeg"
    }
  ],
  "materials": [
    {
      "doubleSided": true,
      "emissiveFactor": [
        0,
        0,
        0
      ],
      "name": "material0",
      "pbrMetallicRoughness": {
        "baseColorFactor": [
          1,
          1,
          1,
          1
        ],
        "baseColorTexture": {
          "index": 0,
          "texCoord": 0
        },
        "metallicFactor": 0,
        "roughnessFactor": 0.59999999999999998
      }
    }
  ],
  "meshes": [
    {
      "name": "Model_material0_0",
      "primitives": [
        {
          "attributes": {
            "NORMAL": 1,
            "POSITION": 0,
            "TEXCOORD_0": 2
          },
          "indices": 3,
          "material": 0,
          "mode": 4
        }
      ]
    },
    {
      "name": "Model_material0_0",
      "primitives": [
        {
          "attributes": {
            "NORMAL": 5,
            "POSITION": 4,
            "TEXCOORD_0": 6
          },
          "indices": 7,
          "material": 0,
          "mode": 4
        }
      ]
    },
    {
      "name": "Model_material0_0",
      "primitives": [
        {
          "attributes": {
            "NORMAL": 9,
            "POSITION": 8,
            "TEXCOORD_0": 10
          },
          "indices": 11,
          "material": 0,
          "mode": 4
        }
      ]
    },
    {
      "name": "Model_material0_0",
      "primitives": [
        {
          "attributes": {
            "NORMAL": 13,
            "POSITION": 12,
            "TEXCOORD_0": 14
          },
          "indices": 15,
          "material": 0,
          "mode": 4
        }
      ]
    },
    {
      "name": "Model_material0_0",
      "primitives": [
        {
          "attributes": {
            "NORMAL": 17,
            "POSITION": 16,
            "TEXCOORD_0": 18
          },
          "indices": 19,
          "material": 0,
          "mode": 4
        }
      ]
    },
    {
      "name": "Model_material0_0",
      "primitives": [
        {
          "attributes": {
            "NORMAL": 21,
            "POSITION": 20,
            "TEXCOORD_0": 22
          },
          "indices": 23,
          "material": 0,
          "mode": 4
        }
      ]
    },
    {
      "name": "Model_material0_0",
      "primitives": [
        {
          "attributes": {
            "NORMAL": 25,
            "POSITION": 24,
            "TEXCOORD_0": 26
          },
          "indices": 27,
          "material": 0,
          "mode": 4
        }
      ]
    },
    {
      "name": "Model_material0_0",
      "primitives": [
        {
          "attributes": {
            "NORMAL": 29,
            "POSITION": 28,
            "TEXCOORD_0": 30
          },
          "indices": 31,
          "material": 0,
          "mode": 4
        }
      ]
    },
    {
      "name": "Model_material0_0",
      "primitives": [
        {
          "attributes": {
            "NORMAL": 33,
            "POSITION": 32,
            "TEXCOORD_0": 34
          },
          "indices": 35,
          "material": 0,
          "mode": 4
        }
      ]
    },
    {
      "name": "Model_material0_0",
      "primitives": [
        {
          "attributes": {
            "NORMAL": 37,
            "POSITION": 36,
            "TEXCOORD_0": 38
          },
          "indices": 39,
          "material": 0,
          "mode": 4
        }
      ]
    },
    {
      "name": "Model_material0_0",
      "primitives": [
        {
          "attributes": {
            "NORMAL": 41,
            "POSITION": 40,
            "TEXCOORD_0": 42
          },
          "indices": 43,
          "material": 0,
          "mode": 4
        }
      ]
    },
    {
      "name": "Model_material0_0",
      "primitives": [
        {
          "attributes": {
            "NORMAL": 45,
            "POSITION": 44,
            "TEXCOORD_0": 46
          },
          "indices": 47,
          "material": 0,
          "mode": 4
        }
      ]
    }
  ],
  "nodes": [
    {
      "children": [
        1
      ],
      "name": "RootNode (gltf orientation matrix)",
      "rotation": [
        -0.70710678118654746,
        -0,
        -0,
        0.70710678118654757
      ]
    },
    {
      "children": [
        2
      ],
      "matrix": [
        0.032654989445265015,
        -0.058503449948630326,
        -0.275414529728085,
        0,
        -0.23564789419479837,
        -0.15742295288109887,
        0.0054997329159161557,
        0,
        -0.15409700091648126,
        0.22833643596258746,
        -0.066773909328114112,
        0,
        2.2360358238220215,
        -2.5761709213256836,
        4.4431900978088379,
        1
      ],
      "name": "RootNode (model correction matrix)"
    },
    {
      "children": [
        3
      ],
      "matrix": [
        1,
        0,
        0,
        0,
        0,
        -1,
        0,
        0,
        0,
        0,
        -1,
        0,
        0,
        0,
        0,
        1
      ],
      "name": "model.fbx"
    },
    {
      "children": [
        4
      ],
      "name": "RootNode"
    },
    {
      "children": [
        5,
        6,
        7,
        8,
        9,
        10,
        11,
        12,
        13,
        14,
        15,
        16
      ],
      "name": "Model"
    },
    {
      "mesh": 0,
      "name": "Model_material0_0"
    },
    {
      "mesh": 1,
      "name": "Model_material0_0"
    },
    {
      "mesh": 2,
      "name": "Model_material0_0"
    },
    {
      "mesh": 3,
      "name": "Model_material0_0"
    },
    {
      "mesh": 4,
      "name": "Model_material0_0"
    },
    {
      "mesh": 5,
      "name": "Model_material0_0"
    },
    {
      "mesh": 6,
      "name": "Model_material0_0"
    },
    {
      "mesh": 7,
      "name": "Model_material0_0"
    },
    {
      "mesh": 8,
      "name": "Model_material0_0"
    },
    {
      "mesh": 9,
      "name": "Model_material0_0"
    },
    {
      "mesh": 10,
      "name": "Model_material0_0"
    },
    {
      "mesh": 11,
      "name": "Model_material0_0"
    }
  ],
  "samplers": [
    {
      "magFilter": 9729,
      "minFilter": 9987,
      "wrapS": 10497,
      "wrapT": 10497
    }
  ],
  "scene": 0,
  "scenes": [
    {
      "name": "OSG_Scene",
      "nodes": [
        0
      ]
    }
  ],
  "textures": [
    {
      "sampler": 0,
      "source": 0
    }
  ]
}

